<svg xmlns="http://www.w3.org/2000/svg" xmlns:xlink="http://www.w3.org/1999/xlink" viewBox="0 0 792 612"><defs><style>.cls-1{fill:#fff;}.cls-2,.cls-3{font-size:24px;font-family:Poppins-Bold, Poppins;font-weight:700;}.cls-2{fill:#ce181e;}.cls-3{fill:#1b8164;}.cls-4{font-size:20px;font-family:Poppins-Medium, Poppins;font-weight:500;}.cls-5{fill:url(#linear-gradient);}.cls-6,.cls-8{fill:none;stroke-miterlimit:10;}.cls-6{stroke-width:28px;stroke:url(#linear-gradient-2);}.cls-7{fill:url(#linear-gradient-2);}.cls-8{stroke:#787878;}</style><linearGradient id="linear-gradient" x1="50" y1="216" x2="742" y2="216" gradientUnits="userSpaceOnUse"><stop offset="0" stop-color="#fff"/><stop offset="1"/></linearGradient><linearGradient id="linear-gradient-2" x1="50" y1="216" x2="742" y2="216" gradientUnits="userSpaceOnUse"><stop offset="0.05" stop-color="#ce181e"/><stop offset="0.19" stop-color="#e34916"/><stop offset="0.31" stop-color="#e34916"/><stop offset="0.68" stop-color="#1bd348"/><stop offset="0.85" stop-color="#1bd348"/><stop offset="0.97" stop-color="#1b956b"/></linearGradient></defs><g id="BKGD"><rect class="cls-1" x="0.25" y="0.25" width="791.5" height="611.5" rx="14.75"/><path d="M777,.5A14.51,14.51,0,0,1,791.5,15V597A14.51,14.51,0,0,1,777,611.5H15A14.51,14.51,0,0,1,.5,597V15A14.51,14.51,0,0,1,15,.5H777m0-.5H15A15,15,0,0,0,0,15V597a15,15,0,0,0,15,15H777a15,15,0,0,0,15-15V15A15,15,0,0,0,777,0Z"/></g><g id="GO_WW"><text class="cls-2" transform="translate(52.25 158.52)">More Pessimistic</text><text class="cls-3" transform="translate(541.71 158.52)">More Optimistic</text><text class="cls-4" transform="translate(59.97 321.61)">“What hope was <tspan x="-1" y="27">there for us—for </tspan><tspan x="-1" y="54">any of us—to find </tspan><tspan x="-1" y="81">what we were </tspan><tspan x="-1" y="108">searching for?” </tspan><tspan x="-1" y="135">(237)</tspan></text><text class="cls-4" transform="translate(307.96 321.61)">“I know maybe <tspan x="0" y="27">everything won’t be </tspan><tspan x="0" y="54">OK. But we have to </tspan><tspan x="0" y="81">keep going anyway, </tspan><tspan x="0" y="108">and make the most </tspan><tspan x="0" y="135">with what we’ve </tspan><tspan x="0" y="162">got.” (94)</tspan></text><text class="cls-4" transform="translate(567.96 321.61)">“Everything will <tspan x="0" y="27">be OK.” (36, 244)</tspan></text><line class="cls-5" x1="50" y1="216" x2="742" y2="216"/><line class="cls-6" x1="80.92" y1="216" x2="711.08" y2="216"/><polygon class="cls-7" points="85.71 180.28 85.71 251.72 50 216 85.71 180.28"/><polygon class="cls-7" points="706.29 180.28 706.29 251.72 742 216 706.29 180.28"/><rect class="cls-8" x="50" y="290" width="206" height="220"/><rect class="cls-8" x="298" y="290" width="226" height="220"/><rect class="cls-8" x="557" y="290" width="180" height="220"/></g></svg>